<svg id="visual" viewBox="0 0 1900 1200" width="1900" height="1200" xmlns="http://www.w3.org/2000/svg" xmlns:xlink="http://www.w3.org/1999/xlink" version="1.1"><path d="M0 999L45.2 965.7C90.3 932.3 180.7 865.7 271.2 857.2C361.7 848.7 452.3 898.3 542.8 932C633.3 965.7 723.7 983.3 814.2 951.5C904.7 919.7 995.3 838.3 1085.8 799.8C1176.3 761.3 1266.7 765.7 1357.2 793.3C1447.7 821 1538.3 872 1628.8 870C1719.3 868 1809.7 813 1854.8 785.5L1900 758L1900 1201L1854.8 1201C1809.7 1201 1719.3 1201 1628.8 1201C1538.3 1201 1447.7 1201 1357.2 1201C1266.7 1201 1176.3 1201 1085.8 1201C995.3 1201 904.7 1201 814.2 1201C723.7 1201 633.3 1201 542.8 1201C452.3 1201 361.7 1201 271.2 1201C180.7 1201 90.3 1201 45.2 1201L0 1201Z" fill="#fc042e" stroke-linecap="round" stroke-linejoin="miter"></path></svg>