<svg id="visual" viewBox="0 0 1900 1200" width="1900" height="1200" xmlns="http://www.w3.org/2000/svg" xmlns:xlink="http://www.w3.org/1999/xlink" version="1.1"><rect x="0" y="0" width="1900" height="1200" fill="#ffffff"></rect><defs><linearGradient id="grad1_0" x1="36.8%" y1="100%" x2="100%" y2="0%"><stop offset="18.333333333333336%" stop-color="#ffffff" stop-opacity="1"></stop><stop offset="81.66666666666666%" stop-color="#ffffff" stop-opacity="1"></stop></linearGradient></defs><defs><linearGradient id="grad2_0" x1="0%" y1="100%" x2="63.2%" y2="0%"><stop offset="18.333333333333336%" stop-color="#ffffff" stop-opacity="1"></stop><stop offset="81.66666666666666%" stop-color="#ffffff" stop-opacity="1"></stop></linearGradient></defs><g transform="translate(1900, 1200)"><path d="M-393.3 0C-392.1 -55.3 -391 -110.6 -363.3 -150.5C-335.7 -190.4 -281.5 -215 -239.7 -239.7C-197.9 -264.5 -168.4 -289.4 -130.5 -315C-92.6 -340.7 -46.3 -367 0 -393.3L0 0Z" fill="#fc042e"></path></g><g transform="translate(0, 0)"><path d="M393.3 0C391.4 54.8 389.5 109.7 363.3 150.5C337.1 191.3 286.6 218.1 246.1 246.1C205.6 274.1 175.2 303.2 135.9 328C96.5 352.7 48.3 373 0 393.3L0 0Z" fill="#fc042e"></path></g></svg>