<svg id="visual" viewBox="0 0 1900 1200" width="1900" height="1200" xmlns="http://www.w3.org/2000/svg" xmlns:xlink="http://www.w3.org/1999/xlink" version="1.1"><rect x="0" y="0" width="1900" height="1200" fill="#ffffff"></rect><defs><linearGradient id="grad1_0" x1="36.8%" y1="0%" x2="100%" y2="100%"><stop offset="18.333333333333336%" stop-color="#ffffff" stop-opacity="1"></stop><stop offset="81.66666666666666%" stop-color="#ffffff" stop-opacity="1"></stop></linearGradient></defs><defs><linearGradient id="grad2_0" x1="0%" y1="0%" x2="63.2%" y2="100%"><stop offset="18.333333333333336%" stop-color="#ffffff" stop-opacity="1"></stop><stop offset="81.66666666666666%" stop-color="#ffffff" stop-opacity="1"></stop></linearGradient></defs><g transform="translate(1900, 0)"><path d="M0 505.6C-59.1 481.3 -118.2 456.9 -180.6 436.1C-243 415.2 -308.7 397.8 -357.5 357.5C-406.3 317.2 -438.2 254 -460.1 190.6C-482 127.2 -493.8 63.6 -505.6 0L0 0Z" fill="#fc042e"></path></g><g transform="translate(0, 1200)"><path d="M0 -505.6C63.9 -497.2 127.8 -488.7 193.5 -467.1C259.1 -445.6 326.5 -411 356.4 -356.4C386.3 -301.8 378.6 -227.3 397.3 -164.6C415.9 -101.8 460.8 -50.9 505.6 0L0 0Z" fill="#fc042e"></path></g></svg>